name C:\Users\antoi\Documents\MyRepositories\upper-imu-dc\Results\main_tracking\Case_89\kinematics.mot
datacolumns 10
datarows 56
range 6.25000000 6.80000000
endheader 
time	clav_prot	clav_elev	scapula_abduction	scapula_elevation	scapula_upward_rot	scapula_winging	plane_elv	shoulder_elv	axial_rot	
          6.25000000	        -46.16860314	          6.39788367	         -8.04358904	         -4.42479882	         75.41959029	        -13.33315555	         31.63831781	         83.86194990	          0.91365959	
          6.26000000	        -46.17007048	          6.42819637	         -7.92908416	         -4.39243560	         75.58389987	        -13.32851990	         31.84676953	         83.91382822	          0.79412117	
          6.27000000	        -46.17032225	          6.45828461	         -7.81312564	         -4.36003675	         75.74749531	        -13.32282717	         32.05680624	         83.96382212	          0.67698188	
          6.28000000	        -46.16948505	          6.48825293	         -7.69589241	         -4.32753709	         75.91043966	        -13.31619332	         32.26849369	         84.01202970	          0.56256359	
          6.29000000	        -46.16770034	          6.51819756	         -7.57758458	         -4.29487791	         76.07279743	        -13.30874040	         32.48182763	         84.05854711	          0.45114052	
          6.30000000	        -46.16512193	          6.54820508	         -7.45841876	         -4.26200763	         76.23463510	        -13.30059447	         32.69673243	         84.10346967	          0.34293381	
          6.31000000	        -46.16191341	          6.57835213	         -7.33862357	         -4.22888177	         76.39602174	        -13.29188374	         32.91306116	         84.14689318	          0.23810831	
          6.32000000	        -46.15824566	          6.60870547	         -7.21843557	         -4.19546273	         76.55702895	        -13.28273694	         33.13059625	         84.18891492	          0.13677069	
          6.33000000	        -46.15429423	          6.63932143	         -7.09809563	         -4.16172000	         76.71773025	        -13.27328159	         33.34905036	         84.22963410	          0.03896795	
          6.34000000	        -46.15023689	          6.67024403	         -6.97784520	         -4.12763137	         76.87819997	        -13.26364182	         33.56806746	         84.26915211	         -0.05531444	
          6.35000000	        -46.14625102	          6.70150170	         -6.85792234	         -4.09318505	         77.03851207	        -13.25393572	         33.78722461	         84.30757248	         -0.14615514	
          6.36000000	        -46.14251102	          6.73310299	         -6.73855703	         -4.05838248	         77.19873911	        -13.24427237	         34.00603506	         84.34500062	         -0.23369996	
          6.37000000	        -46.13918537	          6.76503176	         -6.61996597	         -4.02324142	         77.35895146	        -13.23474844	         34.22395343	         84.38154366	         -0.31816407	
          6.38000000	        -46.13643376	          6.79724282	         -6.50234719	         -3.98779881	         77.51921658	        -13.22544504	         34.44038407	         84.41731011	         -0.39983174	
          6.39000000	        -46.13440429	          6.82965905	         -6.38587539	         -3.95211255	         77.67959828	        -13.21642522	         34.65469309	         84.45240946	         -0.47905141	
          6.40000000	        -46.13323113	          6.86217207	         -6.27069872	         -3.91626093	         77.84015603	        -13.20773291	         34.86622421	         84.48695175	         -0.55622414	
          6.41000000	        -46.13303289	          6.89464734	         -6.15693799	         -3.88033914	         78.00094421	        -13.19939394	         35.07431677	         84.52104725	         -0.63178508	
          6.42000000	        -46.13391160	          6.92693412	         -6.04468790	         -3.84445248	         78.16201146	        -13.19141898	         35.27832530	         84.55480635	         -0.70617891	
          6.43000000	        -46.13595199	          6.95887851	         -5.93402042	         -3.80870762	         78.32339900	        -13.18380791	         35.47763865	         84.58833816	         -0.77983210	
          6.44000000	        -46.13922223	          6.99033552	         -5.82498990	         -3.77320462	         78.48513933	        -13.17655446	         35.67169403	         84.62175010	         -0.85312779	
          6.45000000	        -46.14377512	          7.02117802	         -5.71763797	         -3.73803104	         78.64725515	        -13.16965022	         35.85998643	         84.65514727	         -0.92638683	
          6.46000000	        -46.14964864	          7.05130168	         -5.61199666	         -3.70325882	         78.80975806	        -13.16308670	         36.04207488	         84.68863036	         -0.99985765	
          6.47000000	        -46.15686543	          7.08062605	         -5.50808843	         -3.66894363	         78.97264740	        -13.15685534	         36.21758475	         84.72229254	         -1.07371604	
          6.48000000	        -46.16543123	          7.10909318	         -5.40592320	         -3.63512577	         79.13591033	        -13.15094592	         36.38620798	         84.75621647	         -1.14807329	
          6.49000000	        -46.17533241	          7.13666546	         -5.30549240	         -3.60183128	         79.29952346	        -13.14534388	         36.54770288	         84.79047181	         -1.22298962	
          6.50000000	        -46.18653298	          7.16332394	         -5.20676109	         -3.56907268	         79.46345598	        -13.14002717	         36.70189499	         84.82511346	         -1.29849000	
          6.51000000	        -46.19897124	          7.18906765	         -5.10965955	         -3.53684878	         79.62767317	        -13.13496321	         36.84867936	         84.86017932	         -1.37457946	
          6.52000000	        -46.21255696	          7.21391378	         -5.01407586	         -3.50514402	         79.79214006	        -13.13010639	         36.98802361	         84.89568871	         -1.45125619	
          6.53000000	        -46.22717045	          7.23789742	         -4.91985094	         -3.47392818	         79.95682551	        -13.12539658	         37.11996868	         84.93164268	         -1.52852236	
          6.54000000	        -46.24266317	          7.26106985	         -4.82677684	         -3.44315723	         80.12170520	        -13.12075832	         37.24462697	         84.96802479	         -1.60639267	
          6.55000000	        -46.25885961	          7.28349441	         -4.73459796	         -3.41277614	         80.28676247	        -13.11610033	         37.36217818	         85.00480126	         -1.68490122	
          6.56000000	        -46.27555994	          7.30524018	         -4.64301431	         -3.38272339	         80.45198755	        -13.11131522	         37.47286296	         85.04192088	         -1.76410729	
          6.57000000	        -46.29254318	          7.32637385	         -4.55168653	         -3.35293698	         80.61737494	        -13.10627907	         37.57697497	         85.07931443	         -1.84410011	
          6.58000000	        -46.30957065	          7.34695003	         -4.46024226	         -3.32336162	         80.78291919	        -13.10085118	         37.67485220	         85.11689324	         -1.92500245	
          6.59000000	        -46.32638906	          7.36700357	         -4.36828308	         -3.29395473	         80.94860972	        -13.09487438	         37.76686752	         85.15454727	         -2.00697220	
          6.60000000	        -46.34273359	          7.38654407	         -4.27539231	         -3.26469096	         81.11442541	        -13.08817625	         37.85341953	         85.19214298	         -2.09020137	
          6.61000000	        -46.35833152	          7.40555328	         -4.18114373	         -3.23556476	         81.28032991	        -13.08057156	         37.93492359	         85.22952209	         -2.17491205	
          6.62000000	        -46.37290674	          7.42398491	         -4.08511109	         -3.20659127	         81.44626872	        -13.07186589	         38.01180228	         85.26650242	         -2.26134989	
          6.63000000	        -46.38618562	          7.44176579	         -3.98687846	         -3.17780609	         81.61216868	        -13.06186043	         38.08447589	         85.30288129	         -2.34977509	
          6.64000000	        -46.39790353	          7.45879827	         -3.88605068	         -3.14926413	         81.77793920	        -13.05035728	         38.15335422	         85.33844008	         -2.44045196	
          6.65000000	        -46.40781120	          7.47496346	         -3.78226344	         -3.12103781	         81.94347377	        -13.03716486	         38.21883044	         85.37294814	         -2.53363745	
          6.66000000	        -46.41568206	          7.49012363	         -3.67519303	         -3.09321566	         82.10865397	        -13.02210345	         38.28127265	         85.40617011	         -2.62957086	
          6.67000000	        -46.42131983	          7.50412525	         -3.56456615	         -3.06590041	         82.27335435	        -13.00501088	         38.34101654	         85.43787377	         -2.72846302	
          6.68000000	        -46.42456506	          7.51680188	         -3.45016827	         -3.03920709	         82.43744679	        -12.98574748	         38.39835856	         85.46783643	         -2.83048763	
          6.69000000	        -46.42530013	          7.52797801	         -3.33184954	         -3.01326032	         82.60080522	        -12.96420024	         38.45355177	         85.49585145	         -2.93577383	
          6.70000000	        -46.42345270	          7.53747338	         -3.20952911	         -2.98819132	         82.76330921	        -12.94028605	         38.50680213	         85.52173163	         -3.04440032	
          6.71000000	        -46.41899741	          7.54510731	         -3.08319694	         -2.96413471	         82.92484731	        -12.91395381	         38.55826558	         85.54531235	         -3.15639203	
          6.72000000	        -46.41195691	          7.55070587	         -2.95291530	         -2.94122342	         83.08531989	        -12.88518688	         38.60804698	         85.56645318	         -3.27171657	
          6.73000000	        -46.40240117	          7.55411119	         -2.81881946	         -2.91958216	         83.24464039	        -12.85400517	         38.65620044	         85.58503808	         -3.39027985	
          6.74000000	        -46.39044419	          7.55519193	         -2.68111506	         -2.89932005	         83.40273537	        -12.82046594	         38.70272909	         85.60097388	         -3.51192472	
          6.75000000	        -46.37623968	          7.55385394	         -2.54007437	         -2.88052311	         83.55954372	        -12.78466399	         38.74758646	         85.61418644	         -3.63643084	
          6.76000000	        -46.35997580	          7.55004919	         -2.39603179	         -2.86324801	         83.71501416	        -12.74673089	         38.79068002	         85.62461647	         -3.76351371	
          6.77000000	        -46.34186979	          7.54378150	         -2.24937915	         -2.84751820	         83.86910176	        -12.70683328	         38.83187643	         85.63221409	         -3.89282607	
          6.78000000	        -46.32216147	          7.53510867	         -2.10055758	         -2.83332222	         84.02176499	        -12.66516927	         38.87100797	         85.63693201	         -4.02396181	
          6.79000000	        -46.30110634	          7.52414230	         -1.95004897	         -2.82061371	         84.17296177	        -12.62196404	         38.90788207	         85.63872084	         -4.15646045	
          6.80000000	        -46.27897041	          7.51104559	         -1.79836833	         -2.80931278	         84.32264726	        -12.57746578	         38.94229401	         85.63752450	         -4.28981130	
